<?xml version="1.0" encoding="UTF-8" standalone="no"?>
<svg
   xmlns:dc="http://purl.org/dc/elements/1.1/"
   xmlns:cc="http://creativecommons.org/ns#"
   xmlns:rdf="http://www.w3.org/1999/02/22-rdf-syntax-ns#"
   xmlns:svg="http://www.w3.org/2000/svg"
   xmlns="http://www.w3.org/2000/svg"
   version="1.1"
   id="Capa_1"
   x="0px"
   y="0px"
   width="120"
   height="120"
   viewBox="0 0 120 120"
   xml:space="preserve"><metadata
   id="metadata41"><rdf:RDF><cc:Work
       rdf:about=""><dc:format>image/svg+xml</dc:format><dc:type
         rdf:resource="http://purl.org/dc/dcmitype/StillImage" /><dc:title></dc:title></cc:Work></rdf:RDF></metadata><defs
   id="defs39">
	
</defs>
<path
   style="stroke-width:0.24022909;fill:#2e7ef7;fill-opacity:1"
   id="path2"
   d="m 59.458351,60.7269 -41.2966,-41.29682 c -2.96779,-2.96779 -2.96779,-7.78199 0,-10.7497802 2.96779,-2.96898 7.78056,-2.96898 10.74978,0 L 75.586371,55.35299 c 1.48245,1.4846 2.22356,3.42829 2.22356,5.37366 0,1.9454 -0.74254,3.89053 -2.22356,5.37297 l -46.67508,46.67364 c -2.96898,2.96899 -7.78197,2.96899 -10.74976,0 -2.96779,-2.96779 -2.96779,-7.78126 0,-10.74881 z M 87.586061,6.4541097 V 111.2639 c 0,0.80525 0.64884,1.4541 1.45386,1.4541 h 13.570299 c 0.8038,0 1.45409,-0.64885 1.45409,-1.4541 V 6.4541097 c 0,-0.80381 -0.65029,-1.45411 -1.45409,-1.45411 H 89.039921 c -0.80502,0 -1.45386,0.6503 -1.45386,1.45411 z" />















</svg>